<?xml version="1.0" encoding="UTF-8"?>
<svg viewBox="0 0 1200 2000" xmlns="http://www.w3.org/2000/svg">
  <!-- Background -->
  <rect width="1200" height="1600" fill="#f8f8f8" rx="0" ry="0"/>
  
  <!-- Page 1 -->
  <!-- Header -->
  <rect x="0" y="0" width="1200" height="100" fill="#0078d4"/>
  <text x="600" y="60" font-family="Segoe UI, Arial, sans-serif" font-size="36" fill="white" font-weight="bold" text-anchor="middle">
    SharePoint and Dataverse Multi-Environment Architecture
  </text>
  
  <!-- Microsoft Logo -->
  <g transform="translate(30, 30) scale(1)">
    <rect x="0" y="0" width="20" height="20" fill="#f25022"/>
    <rect x="22" y="0" width="20" height="20" fill="#7fba00"/>
    <rect x="0" y="22" width="20" height="20" fill="#00a4ef"/>
    <rect x="22" y="22" width="20" height="20" fill="#ffb900"/>
  </g>
  


  <!-- Overview Section -->
  <rect x="50" y="130" width="1100" height="80" fill="#eeeeee" rx="5" ry="5"/>
  <text x="100" y="170" font-family="Segoe UI, Arial, sans-serif" font-size="24" fill="#333333" font-weight="bold">Overview</text>
  <text x="100" y="200" font-family="Segoe UI, Arial, sans-serif" font-size="16" fill="#333333">
    Integrating SharePoint subsites and Dataverse environments across your development lifecycle, 
    including connections to Power Pages.
  </text>

  <!-- Architecture Diagram - Modern Style -->
  <rect x="50" y="240" width="1100" height="450" fill="white" rx="5" ry="5" stroke="#dddddd" stroke-width="1"/>
  <text x="100" y="280" font-family="Segoe UI, Arial, sans-serif" font-size="24" fill="#333333" font-weight="bold">Architecture Diagram</text>
  
  <!-- SharePoint Main Site -->
  <rect x="300" y="320" width="600" height="60" fill="#2072a7" rx="10" ry="10"/>
  <text x="600" y="360" font-family="Segoe UI, Arial, sans-serif" font-size="20" fill="white" font-weight="bold" text-anchor="middle">SharePoint Site</text>
  
  <!-- SharePoint Icons -->
  <!-- <g transform="translate(320, 335) scale(0.4)">
    <rect x="0" y="0" width="70" height="70" fill="white" rx="5" ry="5"/>
    <text x="35" y="50" font-family="Segoe UI, Arial, sans-serif" font-size="50" fill="#2072a7" font-weight="bold" text-anchor="middle">SP</text>
  </g> -->
  
  <!-- Subsites Container - Centered with proper width -->
<rect x="150" y="410" width="900" height="70" fill="#e6f2fa" rx="5" ry="5" stroke="#2072a7" stroke-width="2" stroke-dasharray="5,5"/>
<text x="600" y="430" font-family="Segoe UI, Arial, sans-serif" font-size="14" fill="#2072a7" text-anchor="middle">SharePoint Subsites</text>

<!-- Subsites - Evenly spaced and centered -->
<rect x="260" y="440" width="120" height="30" fill="#2072a7" rx="5" ry="5"/>
<text x="320" y="460" font-family="Segoe UI, Arial, sans-serif" font-size="14" fill="white" font-weight="bold" text-anchor="middle">Dev Subsite</text>

<rect x="400" y="440" width="120" height="30" fill="#2072a7" rx="5" ry="5"/>
<text x="460" y="460" font-family="Segoe UI, Arial, sans-serif" font-size="14" fill="white" font-weight="bold" text-anchor="middle">Staging Subsite</text>

<rect x="540" y="440" width="120" height="30" fill="#2072a7" rx="5" ry="5"/>
<text x="600" y="460" font-family="Segoe UI, Arial, sans-serif" font-size="14" fill="white" font-weight="bold" text-anchor="middle">QA Subsite</text>

<rect x="680" y="440" width="120" height="30" fill="#2072a7" rx="5" ry="5"/>
<text x="740" y="460" font-family="Segoe UI, Arial, sans-serif" font-size="14" fill="white" font-weight="bold" text-anchor="middle">Pre-Prod Subsite</text>

<rect x="820" y="440" width="120" height="30" fill="#2072a7" rx="5" ry="5"/>
<text x="880" y="460" font-family="Segoe UI, Arial, sans-serif" font-size="14" fill="white" font-weight="bold" text-anchor="middle">Prod Subsite</text>

<!-- Connection Line from SharePoint to Subsites Container -->
<line x1="600" y1="380" x2="600" y2="410" stroke="#2072a7" stroke-width="2"/>
<polygon points="600,410 595,400 605,400" fill="#2072a7"/>

<!-- Dataverse Environments Container - Centered with proper width -->
<rect x="150" y="510" width="900" height="70" fill="#f5ebf5" rx="5" ry="5" stroke="#742774" stroke-width="2" stroke-dasharray="5,5"/>
<text x="600" y="530" font-family="Segoe UI, Arial, sans-serif" font-size="14" fill="#742774" text-anchor="middle">Dataverse Environments</text>

<!-- Dataverse Environments - Evenly spaced and centered -->
<rect x="260" y="540" width="120" height="30" fill="#742774" rx="5" ry="5"/>
<text x="320" y="560" font-family="Segoe UI, Arial, sans-serif" font-size="14" fill="white" font-weight="bold" text-anchor="middle">Development</text>

<rect x="400" y="540" width="120" height="30" fill="#742774" rx="5" ry="5"/>
<text x="460" y="560" font-family="Segoe UI, Arial, sans-serif" font-size="14" fill="white" font-weight="bold" text-anchor="middle">Staging</text>

<rect x="540" y="540" width="120" height="30" fill="#742774" rx="5" ry="5"/>
<text x="600" y="560" font-family="Segoe UI, Arial, sans-serif" font-size="14" fill="white" font-weight="bold" text-anchor="middle">QA</text>

<rect x="680" y="540" width="120" height="30" fill="#742774" rx="5" ry="5"/>
<text x="740" y="560" font-family="Segoe UI, Arial, sans-serif" font-size="14" fill="white" font-weight="bold" text-anchor="middle">Pre-Production</text>

<rect x="820" y="540" width="120" height="30" fill="#742774" rx="5" ry="5"/>
<text x="880" y="560" font-family="Segoe UI, Arial, sans-serif" font-size="14" fill="white" font-weight="bold" text-anchor="middle">Production</text>

<!-- Connection Lines from Subsites to Dataverse - Adjusted -->
<line x1="320" y1="470" x2="320" y2="540" stroke="#742774" stroke-width="2"/>
<polygon points="320,540 315,530 325,530" fill="#742774"/>

<line x1="460" y1="470" x2="460" y2="540" stroke="#742774" stroke-width="2"/>
<polygon points="460,540 455,530 465,530" fill="#742774"/>

<line x1="600" y1="470" x2="600" y2="540" stroke="#742774" stroke-width="2"/>
<polygon points="600,540 595,530 605,530" fill="#742774"/>

<line x1="740" y1="470" x2="740" y2="540" stroke="#742774" stroke-width="2"/>
<polygon points="740,540 735,530 745,530" fill="#742774"/>

<line x1="880" y1="470" x2="880" y2="540" stroke="#742774" stroke-width="2"/>
<polygon points="880,540 875,530 885,530" fill="#742774"/>

<!-- Power Pages Container - Centered with proper width -->
<rect x="150" y="610" width="900" height="70" fill="#e6f2f9" rx="5" ry="5" stroke="#0078d4" stroke-width="2" stroke-dasharray="5,5"/>
<text x="600" y="630" font-family="Segoe UI, Arial, sans-serif" font-size="14" fill="#0078d4" text-anchor="middle">Power Pages</text>

<!-- Evenly spaced and centered -->
<rect x="260" y="640" width="120" height="30" fill="#0078d4" rx="5" ry="5"/>
<text x="320" y="660" font-family="Segoe UI, Arial, sans-serif" font-size="14" fill="white" font-weight="bold" text-anchor="middle">Dev</text>

<rect x="400" y="640" width="120" height="30" fill="#0078d4" rx="5" ry="5"/>
<text x="460" y="660" font-family="Segoe UI, Arial, sans-serif" font-size="14" fill="white" font-weight="bold" text-anchor="middle">Staging</text>

<rect x="540" y="640" width="120" height="30" fill="#0078d4" rx="5" ry="5"/>
<text x="600" y="660" font-family="Segoe UI, Arial, sans-serif" font-size="14" fill="white" font-weight="bold" text-anchor="middle">QA</text>

<rect x="680" y="640" width="120" height="30" fill="#0078d4" rx="5" ry="5"/>
<text x="740" y="660" font-family="Segoe UI, Arial, sans-serif" font-size="14" fill="white" font-weight="bold" text-anchor="middle">Pre-Prod</text>

<rect x="820" y="640" width="120" height="30" fill="#0078d4" rx="5" ry="5"/>
<text x="880" y="660" font-family="Segoe UI, Arial, sans-serif" font-size="14" fill="white" font-weight="bold" text-anchor="middle">Prod</text>

<!-- Connection Lines from Dataverse to Adjusted -->
<line x1="320" y1="570" x2="320" y2="640" stroke="#0078d4" stroke-width="2"/>
<polygon points="320,640 315,630 325,630" fill="#0078d4"/>

<line x1="460" y1="570" x2="460" y2="640" stroke="#0078d4" stroke-width="2"/>
<polygon points="460,640 455,630 465,630" fill="#0078d4"/>

<line x1="600" y1="570" x2="600" y2="640" stroke="#0078d4" stroke-width="2"/>
<polygon points="600,640 595,630 605,630" fill="#0078d4"/>

<line x1="740" y1="570" x2="740" y2="640" stroke="#0078d4" stroke-width="2"/>
<polygon points="740,640 735,630 745,630" fill="#0078d4"/>

<line x1="880" y1="570" x2="880" y2="640" stroke="#0078d4" stroke-width="2"/>
<polygon points="880,640 875,630 885,630" fill="#0078d4"/>
  
  <!-- Key Features -->
  <rect x="50" y="720" width="650" height="250" fill="white" rx="5" ry="5" stroke="#dddddd" stroke-width="1"/>
  <text x="100" y="760" font-family="Segoe UI, Arial, sans-serif" font-size="24" fill="#333333" font-weight="bold">Key Features</text>
  
  <!-- Feature 1 -->
  <circle cx="80" cy="800" r="10" fill="#0078d4"/>
  <text x="100" y="805" font-family="Segoe UI, Arial, sans-serif" font-size="16" fill="#333333" font-weight="bold">Document Management</text>
  <text x="100" y="830" font-family="Segoe UI, Arial, sans-serif" font-size="14" fill="#333333">
    Store and manage documents in SharePoint via Dataverse
  </text>
  
  <!-- Feature 2 -->
  <circle cx="80" cy="860" r="10" fill="#0078d4"/>
  <text x="100" y="865" font-family="Segoe UI, Arial, sans-serif" font-size="16" fill="#333333" font-weight="bold">Centralized Access Control</text>
  <text x="100" y="890" font-family="Segoe UI, Arial, sans-serif" font-size="14" fill="#333333">
    Manage permissions at the SharePoint level
  </text>
  
  <!-- Feature 3 -->
  <circle cx="80" cy="920" r="10" fill="#0078d4"/>
  <text x="100" y="925" font-family="Segoe UI, Arial, sans-serif" font-size="16" fill="#333333" font-weight="bold">Environment Isolation</text>
  <text x="100" y="950" font-family="Segoe UI, Arial, sans-serif" font-size="14" fill="#333333">
    Dedicated subsite for each environment prevents 
    cross-contamination
  </text>
  
  <!-- Legend -->
  <rect x="620" y="720" width="530" height="250" fill="white" rx="5" ry="5" stroke="#dddddd" stroke-width="1"/>
  <text x="670" y="760" font-family="Segoe UI, Arial, sans-serif" font-size="24" fill="#333333" font-weight="bold">Legend</text>
  
  <!-- SharePoint Legend -->
  <rect x="670" y="800" width="25" height="25" fill="#2072a7" rx="3" ry="3"/>
  <text x="710" y="820" font-family="Segoe UI, Arial, sans-serif" font-size="16" fill="#333333">SharePoint Components</text>
  
  <!-- Dataverse Legend -->
  <rect x="670" y="845" width="25" height="25" fill="#742774" rx="3" ry="3"/>
  <text x="710" y="865" font-family="Segoe UI, Arial, sans-serif" font-size="16" fill="#333333">Dataverse Environments</text>
  
  <!-- Power Pages Legend -->
  <rect x="670" y="890" width="25" height="25" fill="#0078d4" rx="3" ry="3"/>
  <text x="710" y="910" font-family="Segoe UI, Arial, sans-serif" font-size="16" fill="#333333">Power Pages</text>
  
  <!-- Page 2 -->
  <!-- Header for Page 2 -->
  <rect x="0" y="1000" width="1200" height="100" fill="#0078d4"/>
  <text x="600" y="1060" font-family="Segoe UI, Arial, sans-serif" font-size="36" fill="white" font-weight="bold" text-anchor="middle">
    Configuration Steps
  </text>
  
  <!-- Microsoft Logo on Page 2 -->
  <g transform="translate(30, 1030) scale(1)">
    <rect x="0" y="0" width="20" height="20" fill="#f25022"/>
    <rect x="22" y="0" width="20" height="20" fill="#7fba00"/>
    <rect x="0" y="22" width="20" height="20" fill="#00a4ef"/>
    <rect x="22" y="22" width="20" height="20" fill="#ffb900"/>
  </g>
  
  <!-- SharePoint Setup -->
  <rect x="50" y="1130" width="1100" height="170" fill="white" rx="5" ry="5" stroke="#dddddd" stroke-width="1"/>
  <rect x="50" y="1130" width="300" height="40" fill="#2072a7" rx="5" ry="5"/>
  <text x="200" y="1158" font-family="Segoe UI, Arial, sans-serif" font-size="20" fill="white" font-weight="bold" text-anchor="middle">1. SharePoint Setup</text>
  
  <circle cx="80" cy="1190" r="10" fill="#2072a7"/>
  <text x="100" y="1195" font-family="Segoe UI, Arial, sans-serif" font-size="14" fill="#333333">Create a main SharePoint site</text>
  
  <circle cx="80" cy="1220" r="10" fill="#2072a7"/>
  <text x="100" y="1225" font-family="Segoe UI, Arial, sans-serif" font-size="14" fill="#333333">
    Create five dedicated subsites, one for each environment (Dev, Staging, QA, Pre-Prod, Prod)
  </text>
  
  <circle cx="80" cy="1250" r="10" fill="#2072a7"/>
  <text x="100" y="1255" font-family="Segoe UI, Arial, sans-serif" font-size="14" fill="#333333">
    Configure appropriate permissions for each subsite based on environment access needs
  </text>
  
  <!-- Dataverse Connection Configuration -->
  <rect x="50" y="1320" width="1100" height="170" fill="white" rx="5" ry="5" stroke="#dddddd" stroke-width="1"/>
  <rect x="50" y="1320" width="450" height="40" fill="#742774" rx="5" ry="5"/>
  <text x="275" y="1348" font-family="Segoe UI, Arial, sans-serif" font-size="20" fill="white" font-weight="bold" text-anchor="middle">2. Dataverse Connection Configuration</text>
  
  <circle cx="80" cy="1380" r="10" fill="#742774"/>
  <text x="100" y="1385" font-family="Segoe UI, Arial, sans-serif" font-size="14" fill="#333333">
    In each Dataverse environment, navigate to Settings → Document Management
  </text>
  
  <circle cx="80" cy="1410" r="10" fill="#742774"/>
  <text x="100" y="1415" font-family="Segoe UI, Arial, sans-serif" font-size="14" fill="#333333">
    Configure the SharePoint site URL, pointing to the corresponding subsite
  </text>
  
  <circle cx="80" cy="1440" r="10" fill="#742774"/>
  <text x="100" y="1445" font-family="Segoe UI, Arial, sans-serif" font-size="14" fill="#333333">
    Set authentication method (typically OAuth) and test the connection
  </text>
  
  <!-- Power Pages Integration -->
  <rect x="50" y="1510" width="1100" height="200" fill="white" rx="5" ry="5" stroke="#dddddd" stroke-width="1"/>
  <rect x="50" y="1510" width="350" height="40" fill="#0078d4" rx="5" ry="5"/>
  <text x="225" y="1538" font-family="Segoe UI, Arial, sans-serif" font-size="20" fill="white" font-weight="bold" text-anchor="middle">3. Power Pages Integration</text>
  
  <circle cx="80" cy="1570" r="10" fill="#0078d4"/>
  <text x="100" y="1575" font-family="Segoe UI, Arial, sans-serif" font-size="14" fill="#333333">
    Create separate Power Pages instances for each environment
  </text>
  
  <circle cx="80" cy="1600" r="10" fill="#0078d4"/>
  <text x="100" y="1605" font-family="Segoe UI, Arial, sans-serif" font-size="14" fill="#333333">
    In each Power Pages design studio, connect to the corresponding Dataverse environment
  </text>
  
  <circle cx="80" cy="1630" r="10" fill="#0078d4"/>
  <text x="100" y="1635" font-family="Segoe UI, Arial, sans-serif" font-size="14" fill="#333333">
    Configure document display components that leverage the SharePoint-stored documents
  </text>
  
  <circle cx="80" cy="1660" r="10" fill="#0078d4"/>
  <text x="100" y="1665" font-family="Segoe UI, Arial, sans-serif" font-size="14" fill="#333333">
    Create appropriate forms and views that mirror across environments
  </text>
  
  <circle cx="80" cy="1690" r="10" fill="#0078d4"/>
  <text x="100" y="1695" font-family="Segoe UI, Arial, sans-serif" font-size="14" fill="#333333">
    Set up consistent data permissions across all environments
  </text>
  
  <!-- Best Practices Section -->
  <rect x="50" y="1730" width="1100" height="170" fill="white" rx="5" ry="5" stroke="#dddddd" stroke-width="1"/>
  <rect x="50" y="1730" width="350" height="40" fill="#ffb900" rx="5" ry="5"/>
  <text x="225" y="1758" font-family="Segoe UI, Arial, sans-serif" font-size="20" fill="white" font-weight="bold" text-anchor="middle">Best Practices</text>
  
  <circle cx="80" cy="1790" r="10" fill="#ffb900"/>
  <text x="100" y="1795" font-family="Segoe UI, Arial, sans-serif" font-size="14" fill="#333333">
    Implement identical folder structures across all SharePoint subsites
  </text>
  
  <circle cx="80" cy="1820" r="10" fill="#ffb900"/>
  <text x="100" y="1825" font-family="Segoe UI, Arial, sans-serif" font-size="14" fill="#333333">
    Use environment variables in Power Pages to manage connections
  </text>
  
  <circle cx="80" cy="1850" r="10" fill="#ffb900"/>
  <text x="100" y="1855" font-family="Segoe UI, Arial, sans-serif" font-size="14" fill="#333333">
    Establish clear governance for document and configuration migration between environments
  </text>
  
  <circle cx="80" cy="1880" r="10" fill="#ffb900"/>
  <text x="100" y="1885" font-family="Segoe UI, Arial, sans-serif" font-size="14" fill="#333333">
    Implement CI/CD pipelines for consistent deployment across environments
  </text>
  <!-- Footer with Cloudstrucc branding -->
<rect x="0" y="1920" width="1200" height="60" fill="#0078d4"/>
<text x="600" y="1960" font-family="Segoe UI, Arial, sans-serif" font-size="14" fill="white" text-anchor="middle">
  Integrating Microsoft Power Platform Solutions
</text>

<!-- Cloudstrucc text at bottom right -->
<text x="1100" y="1960" font-family="Segoe UI, Arial, sans-serif" font-size="14" fill="white" font-weight="bold" text-anchor="middle">
  CLOUDSTRUCC INC.
</text>
  
</svg>
